<?xml version="1.0" ?>
<svg viewBox="0 0 136 64" xmlns="http://www.w3.org/2000/svg">
    <g data-name="filled outline" id="filled_outline">
        <rect height="5" style="fill:#b9b9b9" width="8" x="48" y="56" />
        <rect height="2" style="fill:#9c9c9c" width="8" x="48" y="57" />
        <path
            d="M19,61H9a4,4,0,0,1-4-4V34.361a9.987,9.987,0,0,1,1.056-4.472L11,20V4a1,1,0,0,1,1-1h4a1,1,0,0,1,1,1V20l4.944,9.889A9.987,9.987,0,0,1,23,34.361V57A4,4,0,0,1,19,61Z"
            style="fill:#6b9777" />
        <path
            d="M17,17H11v3L6.056,29.889A9.987,9.987,0,0,0,5,34.361V57a4,4,0,0,0,4,4H19a4,4,0,0,0,4-4V34.361a9.987,9.987,0,0,0-1.056-4.472L17,20Z"
            style="fill:#85bc94" />
        <path d="M17,9H11V4a1,1,0,0,1,1-1h4a1,1,0,0,1,1,1Z" style="fill:#ea9d2d" />
        <rect height="4" style="fill:#b9b9b9" width="6" x="11" y="9" />
        <rect height="20" style="fill:#e4e4e2" width="18" x="5" y="35" />
        <path
            d="M52.731,19.418a1.5,1.5,0,0,0-1.834-.975,1.5,1.5,0,0,0-2.989,0,1.5,1.5,0,0,0-.924,2.843A1.5,1.5,0,0,0,49.4,23.042a1.5,1.5,0,0,0,2.418-1.756A1.5,1.5,0,0,0,52.731,19.418Z"
            style="fill:#eac88f" />
        <path
            d="M44.926,6.8a1.5,1.5,0,0,0-1.834-.975,1.5,1.5,0,0,0-2.989,0,1.495,1.495,0,0,0-.923,2.842A1.5,1.5,0,0,0,41.6,10.425a1.5,1.5,0,0,0,2.418-1.756A1.5,1.5,0,0,0,44.926,6.8Z"
            style="fill:#fbb540" />
        <path
            d="M39.09,37.906l-.279-.745a7,7,0,0,1-.177-4.381L40,28H28l1.366,4.78a7,7,0,0,1-.176,4.381l-.28.745A30.008,30.008,0,0,0,27,48.44V57a4,4,0,0,0,4,4h6a4,4,0,0,0,4-4V48.44A30,30,0,0,0,39.09,37.906Z"
            style="fill:#e4e4e2" />
        <path d="M38,36H30a1,1,0,0,1,0-2h8a1,1,0,0,1,0,2Z" style="fill:#916f56" />
        <path d="M45,45H59a0,0,0,0,1,0,0v9a3,3,0,0,1-3,3H48a3,3,0,0,1-3-3V45A0,0,0,0,1,45,45Z" style="fill:#cbcbcb" />
        <path d="M49,50H45a1,1,0,0,1,0-2h4a1,1,0,0,1,0,2Z" style="fill:#b9b9b9" />
        <path d="M47,54H45a1,1,0,0,1,0-2h2a1,1,0,0,1,0,2Z" style="fill:#b9b9b9" />
        <path d="M54,50H53a1,1,0,0,1,0-2h1a1,1,0,0,1,0,2Z" style="fill:#b9b9b9" />
        <path d="M52,54H51a1,1,0,0,1,0-2h1a1,1,0,0,1,0,2Z" style="fill:#b9b9b9" />
        <path
            d="M49,42a1,1,0,0,1-1-1c0-.389-.161-.562-.658-1a3,3,0,0,1,0-5c.5-.436.658-.609.658-1a1,1,0,0,1,2,0,3.176,3.176,0,0,1-1.342,2.5c-.5.436-.658.609-.658,1s.161.562.658,1A3.176,3.176,0,0,1,50,41,1,1,0,0,1,49,42Z"
            style="fill:#aedee2" />
        <path
            d="M55,42a1,1,0,0,1-1-1c0-.389-.161-.562-.658-1a3,3,0,0,1,0-5c.5-.436.658-.609.658-1a1,1,0,0,1,2,0,3.176,3.176,0,0,1-1.342,2.5c-.5.436-.658.609-.658,1s.161.562.658,1A3.176,3.176,0,0,1,56,41,1,1,0,0,1,55,42Z"
            style="fill:#aedee2" />
        <path
            d="M31,25a1,1,0,0,1-1-1c0-.389-.161-.562-.658-1a3,3,0,0,1,0-5c.5-.436.658-.609.658-1a1,1,0,0,1,2,0,3.176,3.176,0,0,1-1.342,2.5c-.5.436-.658.609-.658,1s.161.562.658,1A3.176,3.176,0,0,1,32,24,1,1,0,0,1,31,25Z"
            style="fill:#aedee2" />
        <path
            d="M37,25a1,1,0,0,1-1-1c0-.389-.161-.562-.658-1a3,3,0,0,1,0-5c.5-.436.658-.609.658-1a1,1,0,0,1,2,0,3.176,3.176,0,0,1-1.342,2.5c-.5.436-.658.609-.658,1s.161.562.658,1A3.176,3.176,0,0,1,38,24,1,1,0,0,1,37,25Z"
            style="fill:#aedee2" />
        <circle cx="15" cy="43" r="4" style="fill:#e06661" />
        <path d="M19,51a.968.968,0,0,1-.243-.03l-4-1a1,1,0,1,1,.484-1.94l4,1A1,1,0,0,1,19,51Z" style="fill:#8d7761" />
        <path
            d="M15.731,46.8a1.5,1.5,0,0,0-1.834-.975,1.5,1.5,0,0,0-2.989,0,1.5,1.5,0,0,0-.924,2.842A1.5,1.5,0,0,0,12.4,50.425a1.5,1.5,0,0,0,2.418-1.756A1.5,1.5,0,0,0,15.731,46.8Z"
            style="fill:#f9adb1" />
        <path
            d="M33.05,43a1,1,0,0,1-.949-.684,11.846,11.846,0,0,1-.253-6.627l.231-.931a1,1,0,0,1,1.942.484l-.233.932A9.843,9.843,0,0,0,34,41.684a1,1,0,0,1-.634,1.265A.989.989,0,0,1,33.05,43Z"
            style="fill:#9c775c" />
        <path
            d="M37,40.382a.993.993,0,0,1-.538-.158,11.927,11.927,0,0,1-3.774-3.886l-.495-.823a1,1,0,0,1,1.715-1.03l.5.824a9.934,9.934,0,0,0,3.137,3.231A1,1,0,0,1,37,40.382Z"
            style="fill:#9c775c" />
        <path
            d="M18,9V4a2,2,0,0,0-2-2H12a2,2,0,0,0-2,2V19.764L5.166,29.44A11,11,0,0,0,4,34.36V57a5.006,5.006,0,0,0,5,5H19a5.006,5.006,0,0,0,5-5V34.36a11,11,0,0,0-1.166-4.919L18,19.764V9ZM12,4h4V8H12Zm0,6h4v2H12Zm0,4h4v2H12ZM22,57a3,3,0,0,1-3,3H9a3,3,0,0,1-3-3V56H22Zm0-3H6V36H22Zm-.954-23.663v0A8.971,8.971,0,0,1,21.979,34H6.021a8.978,8.978,0,0,1,.933-3.663l4.941-9.89A1,1,0,0,0,12,20V18h4v2a1,1,0,0,0,.105.447Z" />
        <path
            d="M51.649,17.407a2.5,2.5,0,0,0-4.494,0,2.5,2.5,0,0,0-1.388,4.274A2.494,2.494,0,0,0,49.4,24.322a2.5,2.5,0,0,0,3.636-2.64,2.5,2.5,0,0,0-1.389-4.275Zm-.173,2.94a1,1,0,0,0-.487,1.495.5.5,0,0,1-.8.582,1.034,1.034,0,0,0-1.572,0,.5.5,0,0,1-.8-.582,1,1,0,0,0-.486-1.495.495.495,0,0,1,.167-.961.524.524,0,0,1,.14.019,1,1,0,0,0,1.271-.924.5.5,0,0,1,.99,0,1,1,0,0,0,1.272.924.493.493,0,0,1,.61.323h0A.494.494,0,0,1,51.476,20.347Z" />
        <path
            d="M37.962,9.065A2.5,2.5,0,0,0,41.6,11.706a2.5,2.5,0,0,0,3.635-2.642,2.5,2.5,0,0,0-1.388-4.273,2.5,2.5,0,0,0-4.494,0,2.5,2.5,0,0,0-1.389,4.274Zm1.259-1.954a.492.492,0,0,1,.61-.322A1,1,0,0,0,41.1,5.864a.5.5,0,0,1,.99,0,1,1,0,0,0,1.271.925.5.5,0,0,1,.307.941,1,1,0,0,0-.486,1.5.495.495,0,0,1-.8.581,1,1,0,0,0-1.572,0,.495.495,0,0,1-.8-.581,1,1,0,0,0-.487-1.5A.494.494,0,0,1,39.221,7.111Z" />
        <path
            d="M27.974,37.555A30.9,30.9,0,0,0,26,48.44V57a5.006,5.006,0,0,0,5,5h6a5.006,5.006,0,0,0,5-5V48.44a30.9,30.9,0,0,0-1.974-10.885h0l-.279-.743a6.04,6.04,0,0,1-.151-3.756l1.366-4.78A1,1,0,0,0,40,27H28a1,1,0,0,0-.962,1.275l1.366,4.78a6.037,6.037,0,0,1-.151,3.755ZM38.674,29l-1,3.506A7.959,7.959,0,0,0,37.413,34H30.587a7.984,7.984,0,0,0-.259-1.495l-1-3.505Zm-8.827,9.257.279-.745A7.868,7.868,0,0,0,30.509,36h1.273a11.826,11.826,0,0,0,.319,6.316A1,1,0,0,0,33.05,43a.989.989,0,0,0,.315-.051A1,1,0,0,0,34,41.684a9.83,9.83,0,0,1-.454-4.116,11.915,11.915,0,0,0,2.916,2.656,1,1,0,1,0,1.078-1.684A9.912,9.912,0,0,1,34.874,36h2.617a7.878,7.878,0,0,0,.383,1.513l.279.744A28.9,28.9,0,0,1,40,48.44V57a3,3,0,0,1-3,3H31a3,3,0,0,1-3-3V48.44A28.9,28.9,0,0,1,29.847,38.257Z" />
        <path
            d="M57,61V57.858A4,4,0,0,0,60,54V45a1,1,0,0,0-1-1H45a1,1,0,0,0-1,1v9a4,4,0,0,0,3,3.858V61a1,1,0,0,0,1,1h8A1,1,0,0,0,57,61ZM46,54h1a1,1,0,0,0,0-2H46V50h3a1,1,0,0,0,0-2H46V46H58v8a2,2,0,0,1-2,2H48A2,2,0,0,1,46,54Zm9,6H49V58h6Z" />
        <path d="M54,48H53a1,1,0,0,0,0,2h1a1,1,0,0,0,0-2Z" />
        <path d="M52,52H51a1,1,0,0,0,0,2h1a1,1,0,0,0,0-2Z" />
        <path
            d="M48.658,36.5A3.176,3.176,0,0,0,50,34a1,1,0,0,0-2,0c0,.389-.161.562-.658,1a3,3,0,0,0,0,5c.5.436.658.609.658,1a1,1,0,0,0,2,0,3.176,3.176,0,0,0-1.342-2.5c-.5-.436-.658-.609-.658-1S48.161,36.938,48.658,36.5Z" />
        <path
            d="M54.658,36.5A3.176,3.176,0,0,0,56,34a1,1,0,0,0-2,0c0,.389-.161.562-.658,1a3,3,0,0,0,0,5c.5.436.658.609.658,1a1,1,0,0,0,2,0,3.176,3.176,0,0,0-1.342-2.5c-.5-.436-.658-.609-.658-1S54.161,36.938,54.658,36.5Z" />
        <path
            d="M30.658,19.5A3.176,3.176,0,0,0,32,17a1,1,0,0,0-2,0c0,.389-.161.562-.658,1a3,3,0,0,0,0,5c.5.436.658.609.658,1a1,1,0,0,0,2,0,3.176,3.176,0,0,0-1.342-2.5c-.5-.436-.658-.609-.658-1S30.161,19.938,30.658,19.5Z" />
        <path
            d="M36,17c0,.389-.161.562-.658,1a3,3,0,0,0,0,5c.5.436.658.609.658,1a1,1,0,0,0,2,0,3.176,3.176,0,0,0-1.342-2.5c-.5-.436-.658-.609-.658-1s.161-.562.658-1A3.176,3.176,0,0,0,38,17a1,1,0,0,0-2,0Z" />
        <path
            d="M9.752,51.519a2.493,2.493,0,0,0,2.651.191,2.494,2.494,0,0,0,1.175.3,2.483,2.483,0,0,0,2.364-1.739l2.816.7A.968.968,0,0,0,19,51a1,1,0,0,0,.241-1.97l-2.712-.678a2.515,2.515,0,0,0,.215-.669A5.012,5.012,0,1,0,10.27,44.6c-.038.064-.083.122-.115.189a2.494,2.494,0,0,0-1.388,4.274A2.481,2.481,0,0,0,9.752,51.519ZM15,40a3,3,0,0,1,1.271,5.719,2.458,2.458,0,0,0-.36-.368c-.022-.019-.048-.032-.072-.051a2.469,2.469,0,0,0-.45-.276c-.048-.023-.1-.045-.146-.066a2.472,2.472,0,0,0-.59-.165,2.381,2.381,0,0,0-.326-.491c-.036-.043-.068-.086-.106-.127a2.6,2.6,0,0,0-.37-.316,2.443,2.443,0,0,0-.228-.145,2.625,2.625,0,0,0-.425-.193,2.113,2.113,0,0,0-.211-.057,2.4,2.4,0,0,0-.568-.081l-.019,0c-.046,0-.091.01-.138.012-.078,0-.155,0-.234.015A3.081,3.081,0,0,1,12,43,3,3,0,0,1,15,40Zm-4.979,7.108a.5.5,0,0,1,.615-.316,1,1,0,0,0,1.273-.917.505.505,0,0,1,.18-.38.518.518,0,0,1,.812.372,1,1,0,0,0,1.275.925.488.488,0,0,1,.6.308.578.578,0,0,0,.012.057.493.493,0,0,1-.309.574,1,1,0,0,0-.487,1.5.5.5,0,0,1-.806.582,1,1,0,0,0-.784-.379h0a1,1,0,0,0-.785.386.5.5,0,0,1-.795-.6,1,1,0,0,0-.486-1.486A.5.5,0,0,1,10.021,47.108Z" />
        <text font-weight="normal" font-style="italic" xml:space="preserve" text-anchor="start"
            font-family="'FiraCode Nerd Font Mono Light'" font-size="20" stroke-width="0" y="42" x="62" stroke="#000"
            fill="#85BC94">Rakuen</text>
    </g>
</svg>
